<mxfile>
    <diagram id="_Wg7OJw05gw8BzJXbIB-" name="第 1 页">
        <mxGraphModel dx="820" dy="597" grid="1" gridSize="10" guides="1" tooltips="1" connect="1" arrows="1" fold="1" page="1" pageScale="1" pageWidth="827" pageHeight="1169" math="0" shadow="0">
            <root>
                <mxCell id="0"/>
                <mxCell id="1" parent="0"/>
                <mxCell id="3" value="" style="rounded=0;whiteSpace=wrap;html=1;strokeColor=#666666;fillColor=#f5f5f5;gradientColor=#b3b3b3;" parent="1" vertex="1">
                    <mxGeometry width="710" height="560" as="geometry"/>
                </mxCell>
                <mxCell id="4" value="&lt;font style=&quot;font-size: 18px&quot; color=&quot;#6666ff&quot;&gt;后台管理系统&lt;/font&gt;" style="text;html=1;strokeColor=none;fillColor=none;align=center;verticalAlign=middle;whiteSpace=wrap;rounded=0;" parent="1" vertex="1">
                    <mxGeometry x="285" y="20" width="140" height="20" as="geometry"/>
                </mxCell>
                <mxCell id="5" value="" style="rounded=0;whiteSpace=wrap;html=1;strokeColor=#d79b00;fillColor=#FFFFCC;" parent="1" vertex="1">
                    <mxGeometry x="20" y="60" width="210" height="310" as="geometry"/>
                </mxCell>
                <mxCell id="9" value="" style="rounded=0;whiteSpace=wrap;html=1;fillColor=#FFFFCC;" parent="1" vertex="1">
                    <mxGeometry x="250" y="60" width="210" height="160" as="geometry"/>
                </mxCell>
                <mxCell id="10" value="" style="rounded=0;whiteSpace=wrap;html=1;fillColor=#FFFFCC;" parent="1" vertex="1">
                    <mxGeometry x="250" y="240" width="210" height="260" as="geometry"/>
                </mxCell>
                <mxCell id="12" value="" style="rounded=0;whiteSpace=wrap;html=1;fillColor=#FFFFCC;" parent="1" vertex="1">
                    <mxGeometry x="480" y="60" width="210" height="160" as="geometry"/>
                </mxCell>
                <mxCell id="14" value="" style="rounded=0;whiteSpace=wrap;html=1;fillColor=#FFFFCC;" parent="1" vertex="1">
                    <mxGeometry x="20" y="380" width="210" height="120" as="geometry"/>
                </mxCell>
                <mxCell id="18" value="" style="rounded=0;whiteSpace=wrap;html=1;fillColor=#FFFFCC;" parent="1" vertex="1">
                    <mxGeometry x="480" y="240" width="210" height="120" as="geometry"/>
                </mxCell>
                <mxCell id="20" value="" style="rounded=0;whiteSpace=wrap;html=1;fillColor=#FFFFCC;" parent="1" vertex="1">
                    <mxGeometry x="480" y="380" width="210" height="120" as="geometry"/>
                </mxCell>
                <mxCell id="22" value="&lt;font style=&quot;font-size: 17px&quot; color=&quot;#ff0080&quot;&gt;房源&lt;/font&gt;" style="text;html=1;strokeColor=none;fillColor=none;align=center;verticalAlign=middle;whiteSpace=wrap;rounded=0;" parent="1" vertex="1">
                    <mxGeometry x="105" y="80" width="40" height="20" as="geometry"/>
                </mxCell>
                <mxCell id="24" value="&lt;font style=&quot;font-size: 17px&quot; color=&quot;#ff0080&quot;&gt;租客管理&lt;/font&gt;" style="text;html=1;strokeColor=none;fillColor=none;align=center;verticalAlign=middle;whiteSpace=wrap;rounded=0;" parent="1" vertex="1">
                    <mxGeometry x="320" y="80" width="70" height="20" as="geometry"/>
                </mxCell>
                <mxCell id="25" value="&lt;font style=&quot;font-size: 17px&quot; color=&quot;#ff0080&quot;&gt;租客申请管理&lt;/font&gt;" style="text;html=1;strokeColor=none;fillColor=none;align=center;verticalAlign=middle;whiteSpace=wrap;rounded=0;" parent="1" vertex="1">
                    <mxGeometry x="530" y="80" width="120" height="20" as="geometry"/>
                </mxCell>
                <mxCell id="26" value="&lt;font style=&quot;font-size: 17px&quot; color=&quot;#ff0080&quot;&gt;审批&lt;/font&gt;" style="text;html=1;strokeColor=none;fillColor=none;align=center;verticalAlign=middle;whiteSpace=wrap;rounded=0;" parent="1" vertex="1">
                    <mxGeometry x="550" y="250" width="70" height="20" as="geometry"/>
                </mxCell>
                <mxCell id="27" value="&lt;font color=&quot;#3333ff&quot;&gt;录入房源&lt;/font&gt;" style="rounded=1;whiteSpace=wrap;html=1;fillColor=#CCFFCC;" parent="1" vertex="1">
                    <mxGeometry x="30" y="110" width="190" height="40" as="geometry"/>
                </mxCell>
                <mxCell id="28" value="&lt;font style=&quot;font-size: 17px&quot; color=&quot;#ff0080&quot;&gt;账单管理&lt;/font&gt;" style="text;html=1;strokeColor=none;fillColor=none;align=center;verticalAlign=middle;whiteSpace=wrap;rounded=0;" parent="1" vertex="1">
                    <mxGeometry x="310" y="250" width="90" height="20" as="geometry"/>
                </mxCell>
                <mxCell id="29" value="&lt;font style=&quot;font-size: 17px&quot; color=&quot;#ff0080&quot;&gt;统计报表&lt;/font&gt;" style="text;html=1;strokeColor=none;fillColor=none;align=center;verticalAlign=middle;whiteSpace=wrap;rounded=0;" parent="1" vertex="1">
                    <mxGeometry x="75" y="400" width="90" height="20" as="geometry"/>
                </mxCell>
                <mxCell id="30" value="&lt;font style=&quot;font-size: 17px&quot; color=&quot;#ff0080&quot;&gt;服务&lt;/font&gt;" style="text;html=1;strokeColor=none;fillColor=none;align=center;verticalAlign=middle;whiteSpace=wrap;rounded=0;" parent="1" vertex="1">
                    <mxGeometry x="540" y="400" width="90" height="20" as="geometry"/>
                </mxCell>
                <mxCell id="31" value="&lt;font color=&quot;#3333ff&quot;&gt;查找房源&lt;/font&gt;" style="rounded=1;whiteSpace=wrap;html=1;fillColor=#CCFFCC;" parent="1" vertex="1">
                    <mxGeometry x="30" y="160" width="90" height="40" as="geometry"/>
                </mxCell>
                <mxCell id="33" value="&lt;font color=&quot;#3333ff&quot;&gt;添加预定&lt;/font&gt;" style="rounded=1;whiteSpace=wrap;html=1;fillColor=#CCFFCC;" parent="1" vertex="1">
                    <mxGeometry x="130" y="160" width="90" height="40" as="geometry"/>
                </mxCell>
                <mxCell id="34" value="&lt;font color=&quot;#3333ff&quot;&gt;添加签约&lt;/font&gt;" style="rounded=1;whiteSpace=wrap;html=1;fillColor=#CCFFCC;" parent="1" vertex="1">
                    <mxGeometry x="30" y="210" width="90" height="40" as="geometry"/>
                </mxCell>
                <mxCell id="35" value="&lt;font color=&quot;#3333ff&quot;&gt;添加账单&lt;/font&gt;" style="rounded=1;whiteSpace=wrap;html=1;fillColor=#CCFFCC;" parent="1" vertex="1">
                    <mxGeometry x="130" y="210" width="90" height="40" as="geometry"/>
                </mxCell>
                <mxCell id="36" value="&lt;font color=&quot;#3333ff&quot;&gt;添加业主合同&lt;/font&gt;" style="rounded=1;whiteSpace=wrap;html=1;fillColor=#CCFFCC;" parent="1" vertex="1">
                    <mxGeometry x="30" y="260" width="90" height="40" as="geometry"/>
                </mxCell>
                <mxCell id="37" value="&lt;font color=&quot;#3333ff&quot;&gt;续租&lt;/font&gt;" style="rounded=1;whiteSpace=wrap;html=1;fillColor=#CCFFCC;" parent="1" vertex="1">
                    <mxGeometry x="130" y="260" width="90" height="40" as="geometry"/>
                </mxCell>
                <mxCell id="38" value="&lt;font color=&quot;#3333ff&quot;&gt;退房&lt;/font&gt;" style="rounded=1;whiteSpace=wrap;html=1;fillColor=#CCFFCC;" parent="1" vertex="1">
                    <mxGeometry x="30" y="310" width="90" height="40" as="geometry"/>
                </mxCell>
                <mxCell id="39" value="&lt;font color=&quot;#3333ff&quot;&gt;物业交接&lt;/font&gt;" style="rounded=1;whiteSpace=wrap;html=1;fillColor=#CCFFCC;" parent="1" vertex="1">
                    <mxGeometry x="130" y="310" width="90" height="40" as="geometry"/>
                </mxCell>
                <mxCell id="40" value="&lt;font color=&quot;#3333ff&quot;&gt;预定单&lt;/font&gt;" style="rounded=1;whiteSpace=wrap;html=1;fillColor=#CCFFCC;" parent="1" vertex="1">
                    <mxGeometry x="265" y="110" width="80" height="40" as="geometry"/>
                </mxCell>
                <mxCell id="41" value="&lt;font color=&quot;#3333ff&quot;&gt;租约&lt;/font&gt;" style="rounded=1;whiteSpace=wrap;html=1;fillColor=#CCFFCC;" parent="1" vertex="1">
                    <mxGeometry x="360" y="110" width="80" height="40" as="geometry"/>
                </mxCell>
                <mxCell id="42" value="&lt;font color=&quot;#3333ff&quot;&gt;入住人管理&lt;/font&gt;" style="rounded=1;whiteSpace=wrap;html=1;fillColor=#CCFFCC;" parent="1" vertex="1">
                    <mxGeometry x="265" y="170" width="80" height="40" as="geometry"/>
                </mxCell>
                <mxCell id="43" value="&lt;font color=&quot;#3333ff&quot;&gt;业主管理&lt;/font&gt;" style="rounded=1;whiteSpace=wrap;html=1;fillColor=#CCFFCC;" parent="1" vertex="1">
                    <mxGeometry x="360" y="170" width="80" height="40" as="geometry"/>
                </mxCell>
                <mxCell id="44" value="&lt;font color=&quot;#3333ff&quot;&gt;租客账单&lt;/font&gt;" style="rounded=1;whiteSpace=wrap;html=1;fillColor=#CCFFCC;" parent="1" vertex="1">
                    <mxGeometry x="265" y="300" width="80" height="40" as="geometry"/>
                </mxCell>
                <mxCell id="45" value="&lt;font color=&quot;#3333ff&quot;&gt;业主账单&lt;/font&gt;" style="rounded=1;whiteSpace=wrap;html=1;fillColor=#CCFFCC;" parent="1" vertex="1">
                    <mxGeometry x="360" y="300" width="80" height="40" as="geometry"/>
                </mxCell>
                <mxCell id="46" value="&lt;font color=&quot;#3333ff&quot;&gt;账单查询&lt;/font&gt;" style="rounded=1;whiteSpace=wrap;html=1;fillColor=#CCFFCC;" parent="1" vertex="1">
                    <mxGeometry x="265" y="360" width="80" height="40" as="geometry"/>
                </mxCell>
                <mxCell id="47" value="&lt;font color=&quot;#3333ff&quot;&gt;账单操作&lt;/font&gt;" style="rounded=1;whiteSpace=wrap;html=1;fillColor=#CCFFCC;" parent="1" vertex="1">
                    <mxGeometry x="360" y="360" width="80" height="40" as="geometry"/>
                </mxCell>
                <mxCell id="48" value="&lt;font color=&quot;#3333ff&quot;&gt;结算&lt;/font&gt;" style="rounded=1;whiteSpace=wrap;html=1;fillColor=#CCFFCC;" parent="1" vertex="1">
                    <mxGeometry x="265" y="420" width="80" height="40" as="geometry"/>
                </mxCell>
                <mxCell id="49" value="&lt;font color=&quot;#3333ff&quot;&gt;运营报表&lt;/font&gt;" style="rounded=1;whiteSpace=wrap;html=1;fillColor=#CCFFCC;" parent="1" vertex="1">
                    <mxGeometry x="35" y="440" width="80" height="40" as="geometry"/>
                </mxCell>
                <mxCell id="50" value="&lt;font color=&quot;#3333ff&quot;&gt;财务报表&lt;/font&gt;" style="rounded=1;whiteSpace=wrap;html=1;fillColor=#CCFFCC;" parent="1" vertex="1">
                    <mxGeometry x="125" y="440" width="80" height="40" as="geometry"/>
                </mxCell>
                <mxCell id="52" value="&lt;font color=&quot;#3333ff&quot;&gt;保洁&lt;/font&gt;" style="rounded=1;whiteSpace=wrap;html=1;fillColor=#CCFFCC;" parent="1" vertex="1">
                    <mxGeometry x="500" y="440" width="80" height="40" as="geometry"/>
                </mxCell>
                <mxCell id="53" value="&lt;font color=&quot;#3333ff&quot;&gt;维修&lt;/font&gt;" style="rounded=1;whiteSpace=wrap;html=1;fillColor=#CCFFCC;" parent="1" vertex="1">
                    <mxGeometry x="590" y="440" width="80" height="40" as="geometry"/>
                </mxCell>
                <mxCell id="57" value="&lt;font color=&quot;#3333ff&quot;&gt;合同审批&lt;/font&gt;" style="rounded=1;whiteSpace=wrap;html=1;fillColor=#CCFFCC;" parent="1" vertex="1">
                    <mxGeometry x="500" y="300" width="80" height="40" as="geometry"/>
                </mxCell>
                <mxCell id="58" value="&lt;font color=&quot;#3333ff&quot;&gt;退租审批&lt;/font&gt;" style="rounded=1;whiteSpace=wrap;html=1;fillColor=#CCFFCC;" parent="1" vertex="1">
                    <mxGeometry x="600" y="300" width="80" height="40" as="geometry"/>
                </mxCell>
                <mxCell id="59" value="&lt;font color=&quot;#3333ff&quot;&gt;带看&lt;/font&gt;" style="rounded=1;whiteSpace=wrap;html=1;fillColor=#CCFFCC;" parent="1" vertex="1">
                    <mxGeometry x="500" y="110" width="80" height="40" as="geometry"/>
                </mxCell>
                <mxCell id="60" value="&lt;font color=&quot;#3333ff&quot;&gt;预定&lt;/font&gt;" style="rounded=1;whiteSpace=wrap;html=1;fillColor=#CCFFCC;" parent="1" vertex="1">
                    <mxGeometry x="590" y="110" width="80" height="40" as="geometry"/>
                </mxCell>
            </root>
        </mxGraphModel>
    </diagram>
</mxfile>